<svg xmlns="http://www.w3.org/2000/svg" viewBox="115 75 180 260">
  <path d="M 163.0,330.5 L 162.5,329.0 L 163.5,328.0 L 164.0,326.5 L 165.0,325.5 L 166.0,324.5 L 166.5,323.0 L 167.5,322.0 L 168.0,320.5 L 169.0,319.5 L 169.5,318.0 L 170.5,317.0 L 171.0,315.5 L 172.0,314.5 L 172.5,313.0 L 173.5,312.0 L 174.0,310.5 L 174.5,309.0 L 175.5,308.0 L 176.0,306.5 L 176.5,305.0 L 177.0,303.5 L 177.5,302.0 L 178.5,301.0 L 178.5,299.0 L 179.0,297.5 L 179.5,296.0 L 179.5,294.0 L 180.0,292.5 L 180.5,291.0 L 180.5,289.0 L 180.5,287.0 L 180.5,285.0 L 180.0,283.5 L 179.5,282.0 L 179.5,280.0 L 179.5,278.0 L 178.5,277.0 L 178.5,275.0 L 178.0,273.5 L 177.5,272.0 L 177.5,270.0 L 176.5,269.0 L 176.5,267.0 L 176.0,265.5 L 175.5,264.0 L 175.5,262.0 L 174.5,261.0 L 174.5,259.0 L 174.0,257.5 L 173.5,256.0 L 172.5,255.0 L 171.5,254.0 L 170.5,253.0 L 169.0,252.5 L 167.0,252.5 L 165.0,252.5 L 163.0,252.5 L 161.0,252.5 L 159.0,252.5 L 158.0,253.5 L 156.0,253.5 L 154.0,253.5 L 152.0,253.5 L 150.0,253.5 L 148.0,253.5 L 146.0,253.5 L 144.0,253.5 L 142.0,253.5 L 141.0,252.5 L 139.5,252.0 L 138.0,251.5 L 137.0,250.5 L 136.5,249.0 L 135.5,248.0 L 135.5,246.0 L 135.5,244.0 L 135.5,242.0 L 135.5,240.0 L 136.5,239.0 L 136.5,237.0 L 136.5,235.0 L 136.5,233.0 L 136.0,231.5 L 135.5,230.0 L 134.5,229.0 L 133.5,228.0 L 133.5,226.0 L 133.5,224.0 L 134.5,223.0 L 134.5,221.0 L 133.5,220.0 L 132.5,219.0 L 131.5,218.0 L 130.5,217.0 L 131.0,215.5 L 131.5,214.0 L 132.0,212.5 L 132.5,211.0 L 132.5,209.0 L 132.0,207.5 L 131.0,206.5 L 130.0,205.5 L 128.5,205.0 L 127.0,204.5 L 125.5,204.0 L 124.0,203.5 L 123.0,202.5 L 122.0,201.5 L 120.5,201.0 L 120.5,199.0 L 120.5,197.0 L 121.0,195.5 L 121.5,194.0 L 122.5,193.0 L 123.5,192.0 L 124.0,190.5 L 124.5,189.0 L 125.5,188.0 L 126.5,187.0 L 127.0,185.5 L 128.0,184.5 L 128.5,183.0 L 129.5,182.0 L 130.0,180.5 L 131.0,179.5 L 131.5,178.0 L 132.5,177.0 L 133.0,175.5 L 133.5,174.0 L 133.5,172.0 L 134.5,171.0 L 134.5,169.0 L 134.5,167.0 L 134.5,165.0 L 134.5,163.0 L 134.5,161.0 L 134.5,159.0 L 134.5,157.0 L 134.5,155.0 L 134.5,153.0 L 135.0,151.5 L 135.5,150.0 L 135.5,148.0 L 136.0,146.5 L 136.5,145.0 L 136.5,143.0 L 137.5,142.0 L 137.5,140.0 L 138.0,138.5 L 138.5,137.0 L 139.0,135.5 L 139.5,134.0 L 139.5,132.0 L 140.0,130.5 L 140.5,129.0 L 140.5,127.0 L 140.0,125.5 L 138.5,125.0 L 137.0,124.5 L 135.5,124.0 L 134.5,123.0 L 133.0,122.5 L 132.0,121.5 L 132.0,120.5 L 133.0,119.5 L 135.0,119.5 L 135.0,118.5 L 134.0,117.5 L 132.5,117.0 L 131.0,116.5 L 130.0,115.5 L 128.5,115.0 L 127.5,114.0 L 126.0,113.5 L 125.0,112.5 L 124.5,111.0 L 123.5,110.0 L 124.5,109.0 L 126.0,108.5 L 128.0,108.5 L 130.0,108.5 L 132.0,108.5 L 134.0,108.5 L 136.0,108.5 L 137.5,108.0 L 139.0,107.5 L 139.5,106.0 L 138.0,105.5 L 136.5,105.0 L 135.0,104.5 L 134.0,103.5 L 132.5,103.0 L 131.5,102.0 L 130.0,101.5 L 129.0,100.5 L 128.0,99.5 L 127.0,98.5 L 126.0,97.5 L 125.5,96.0 L 127.0,95.5 L 129.0,95.5 L 131.0,95.5 L 132.5,95.0 L 134.0,94.5 L 136.0,94.5 L 138.0,94.5 L 140.0,94.5 L 141.0,93.5 L 143.0,93.5 L 145.0,93.5 L 147.0,93.5 L 148.0,92.5 L 150.0,92.5 L 152.0,92.5 L 152.5,91.0 L 151.0,90.5 L 150.0,89.5 L 149.0,88.5 L 148.0,87.5 L 147.0,86.5 L 146.5,85.0 L 148.0,84.5 L 150.0,84.5 L 152.0,84.5 L 153.0,85.5 L 155.0,85.5 L 157.0,85.5 L 159.0,85.5 L 161.0,85.5 L 163.0,85.5 L 165.0,85.5 L 167.0,85.5 L 169.0,85.5 L 171.0,85.5 L 173.0,85.5 L 174.0,84.5 L 176.0,84.5 L 178.0,84.5 L 180.0,84.5 L 181.5,84.0 L 180.0,83.5 L 179.0,82.5 L 177.0,82.5 L 176.0,81.5 L 176.0,80.5 L 178.0,80.5 L 179.5,80.0 L 181.0,79.5 L 183.0,79.5 L 185.0,79.5 L 187.0,79.5 L 189.0,79.5 L 191.0,79.5 L 193.0,79.5 L 195.0,79.5 L 196.5,80.0 L 198.0,80.5 L 200.0,80.5 L 202.0,80.5 L 204.0,80.5 L 206.0,80.5 L 207.0,81.5 L 209.0,81.5 L 211.0,81.5 L 212.0,82.5 L 214.0,82.5 L 215.5,83.0 L 217.0,83.5 L 218.5,84.0 L 220.0,84.5 L 221.5,85.0 L 223.0,85.5 L 224.5,86.0 L 226.0,86.5 L 227.0,87.5 L 228.5,88.0 L 230.0,88.5 L 231.5,88.0 L 230.5,87.0 L 229.5,86.0 L 228.5,85.0 L 227.0,84.5 L 226.0,83.5 L 225.5,82.0 L 226.5,82.0 L 228.0,82.5 L 230.0,82.5 L 231.5,83.0 L 233.0,83.5 L 234.5,84.0 L 236.0,84.5 L 237.0,85.5 L 238.5,86.0 L 240.0,86.5 L 241.0,87.5 L 242.0,88.5 L 243.5,89.0 L 244.5,90.0 L 245.5,91.0 L 246.5,92.0 L 247.5,93.0 L 248.5,94.0 L 249.5,95.0 L 250.5,96.0 L 251.5,97.0 L 252.5,98.0 L 254.0,98.5 L 255.0,99.5 L 256.0,100.5 L 257.0,101.5 L 258.5,102.0 L 260.0,102.5 L 261.0,103.5 L 262.5,104.0 L 264.0,104.5 L 265.0,105.5 L 266.0,106.5 L 267.5,107.0 L 268.5,108.0 L 269.5,109.0 L 270.5,110.0 L 271.5,111.0 L 272.5,112.0 L 273.5,113.0 L 274.5,114.0 L 275.5,115.0 L 276.5,116.0 L 277.5,117.0 L 278.0,118.5 L 279.0,119.5 L 280.0,120.5 L 280.5,122.0 L 281.5,123.0 L 282.0,124.5 L 282.5,126.0 L 283.5,127.0 L 284.0,128.5 L 284.5,130.0 L 285.5,131.0 L 286.0,132.5 L 286.5,134.0 L 287.0,135.5 L 287.5,137.0 L 288.0,138.5 L 288.5,140.0 L 288.5,142.0 L 289.5,143.0 L 289.5,145.0 L 289.5,147.0 L 289.5,149.0 L 289.5,151.0 L 289.5,153.0 L 289.5,155.0 L 289.5,157.0 L 289.5,159.0 L 289.5,161.0 L 289.5,163.0 L 289.5,165.0 L 289.5,167.0 L 289.5,169.0 L 288.5,170.0 L 288.5,172.0 L 288.5,174.0 L 287.5,175.0 L 287.5,177.0 L 286.5,178.0 L 286.5,180.0 L 285.5,181.0 L 285.0,182.5 L 284.5,184.0 L 284.0,185.5 L 283.5,187.0 L 282.5,188.0 L 282.0,189.5 L 281.5,191.0 L 280.5,192.0 L 280.0,193.5 L 279.5,195.0 L 278.5,196.0 L 278.0,197.5 L 277.5,199.0 L 276.5,200.0 L 275.5,201.0 L 275.0,202.5 L 274.5,204.0 L 273.5,205.0 L 273.0,206.5 L 272.0,207.5 L 271.5,209.0 L 270.5,210.0 L 270.0,211.5 L 269.5,213.0 L 268.5,214.0 L 267.5,215.0 L 267.0,216.5 L 266.5,218.0 L 265.5,219.0 L 265.0,220.5 L 264.5,222.0 L 263.5,223.0 L 263.5,225.0 L 262.5,226.0 L 262.5,228.0 L 261.5,229.0 L 261.5,231.0 L 261.0,232.5 L 260.5,234.0 L 260.5,236.0 L 260.0,237.5 L 258.5,237.0 L 257.5,236.0 L 256.0,235.5 L 255.5,237.0 L 255.5,239.0 L 256.5,240.0 L 256.5,242.0 L 256.5,244.0 L 256.5,246.0 L 256.5,248.0 L 257.0,249.5 L 257.5,251.0 L 257.5,253.0 L 257.5,255.0 L 258.0,256.5 L 258.5,258.0 L 258.5,260.0 L 259.0,261.5 L 259.5,263.0 L 259.5,265.0 L 260.5,266.0 L 260.5,268.0 L 261.5,269.0 L 261.5,271.0 L 262.0,272.5 L 262.5,274.0 L 263.5,275.0 L 263.5,277.0 L 264.5,278.0 L 265.0,279.5 L 265.5,281.0 L 266.0,282.5 L 266.5,284.0 L 267.5,285.0 L 268.0,286.5 L 268.5,288.0 L 269.5,289.0 L 270.5,290.0 L 271.0,291.5 L 271.5,293.0 L 272.5,294.0 L 273.0,295.5 L 274.0,296.5 L 274.5,298.0 L 275.5,299.0 L 276.5,300.0 L 277.0,301.5 L 278.0,302.5 L 278.5,304.0 L 279.5,305.0 L 280.5,306.0 L 281.5,307.0 L 282.0,308.5 L 283.0,309.5 L 283.5,311.0 L 282.0,311.5 L 280.0,311.5 L 278.0,311.5 L 276.0,311.5 L 274.0,311.5 L 272.0,311.5 L 270.0,311.5 L 268.0,311.5 L 266.0,311.5 L 264.0,311.5 L 262.5,312.0 L 261.0,312.5 L 259.0,312.5 L 257.0,312.5 L 255.0,312.5 L 253.0,312.5 L 251.0,312.5 L 249.0,312.5 L 247.0,312.5 L 246.0,313.5 L 244.0,313.5 L 242.0,313.5 L 240.0,313.5 L 238.5,314.0 L 237.0,314.5 L 235.0,314.5 L 233.0,314.5 L 232.0,315.5 L 230.0,315.5 L 228.0,315.5 L 226.5,316.0 L 225.0,316.5 L 223.0,316.5 L 221.5,317.0 L 220.0,317.5 L 218.0,317.5 L 216.5,318.0 L 215.0,318.5 L 213.0,318.5 L 211.0,318.5 L 210.0,319.5 L 208.0,319.5 L 206.0,319.5 L 205.0,320.5 L 203.0,320.5 L 201.5,321.0 L 200.0,321.5 L 198.0,321.5 L 197.0,322.5 L 195.0,322.5 L 193.5,323.0 L 192.0,323.5 L 190.0,323.5 L 188.5,324.0 L 187.0,324.5 L 185.0,324.5 L 184.0,325.5 L 182.0,325.5 L 180.5,326.0 L 179.0,326.5 L 177.0,326.5 L 176.0,327.5 L 174.0,327.5 L 172.5,328.0 L 171.0,328.5 L 169.0,328.5 L 167.5,329.0 L 166.0,329.5 L 164.0,329.5 L 163.0,330.5 Z M 203.5,194.0 L 204.5,193.0 L 206.0,192.5 L 207.0,191.5 L 208.5,191.0 L 209.5,190.0 L 211.0,189.5 L 212.0,188.5 L 213.0,187.5 L 214.5,187.0 L 215.5,186.0 L 217.0,185.5 L 218.0,184.5 L 219.0,183.5 L 220.5,183.0 L 221.5,182.0 L 222.5,181.0 L 223.5,180.0 L 224.5,179.0 L 225.5,178.0 L 227.0,177.5 L 228.0,176.5 L 229.0,175.5 L 230.0,174.5 L 231.0,173.5 L 231.5,172.0 L 232.5,171.0 L 233.5,170.0 L 234.5,169.0 L 235.5,168.0 L 236.0,166.5 L 237.0,165.5 L 237.5,164.0 L 238.5,163.0 L 239.0,161.5 L 239.5,160.0 L 240.0,158.5 L 240.5,157.0 L 240.5,155.0 L 240.5,153.0 L 240.5,151.0 L 240.5,149.0 L 240.5,147.0 L 240.5,145.0 L 240.0,143.5 L 239.5,142.0 L 239.5,140.0 L 238.5,139.0 L 237.5,138.0 L 237.0,136.5 L 236.0,135.5 L 235.0,134.5 L 234.0,133.5 L 233.0,132.5 L 231.5,132.0 L 230.0,131.5 L 229.0,130.5 L 227.5,130.0 L 226.0,129.5 L 224.0,129.5 L 222.0,129.5 L 220.0,129.5 L 218.0,129.5 L 216.0,129.5 L 214.5,130.0 L 213.0,130.5 L 212.0,131.5 L 210.5,132.0 L 209.5,133.0 L 208.0,133.5 L 207.0,134.5 L 206.5,136.0 L 205.5,137.0 L 204.5,138.0 L 203.5,139.0 L 202.5,140.0 L 201.5,140.0 L 200.5,139.0 L 199.5,138.0 L 198.5,137.0 L 197.5,136.0 L 196.5,135.0 L 195.5,134.0 L 194.5,133.0 L 193.5,132.0 L 192.0,131.5 L 191.0,130.5 L 189.5,130.0 L 188.0,129.5 L 186.0,129.5 L 185.0,128.5 L 183.0,128.5 L 181.0,128.5 L 180.0,129.5 L 178.0,129.5 L 176.5,130.0 L 175.0,130.5 L 174.0,131.5 L 172.5,132.0 L 171.5,133.0 L 170.5,134.0 L 169.5,135.0 L 168.5,136.0 L 167.5,137.0 L 166.5,138.0 L 165.5,139.0 L 165.0,140.5 L 164.5,142.0 L 164.0,143.5 L 163.5,145.0 L 163.5,147.0 L 163.5,149.0 L 163.5,151.0 L 162.5,152.0 L 163.5,153.0 L 163.5,155.0 L 163.5,157.0 L 164.0,158.5 L 164.5,160.0 L 165.0,161.5 L 165.5,163.0 L 166.5,164.0 L 167.0,165.5 L 168.0,166.5 L 168.5,168.0 L 169.5,169.0 L 170.5,170.0 L 171.5,171.0 L 172.5,172.0 L 173.5,173.0 L 174.5,174.0 L 175.5,175.0 L 176.5,176.0 L 177.5,177.0 L 178.5,178.0 L 179.5,179.0 L 180.5,180.0 L 181.5,181.0 L 182.5,182.0 L 184.0,182.5 L 185.0,183.5 L 186.0,184.5 L 187.0,185.5 L 188.5,186.0 L 189.5,187.0 L 191.0,187.5 L 192.0,188.5 L 193.0,189.5 L 194.5,190.0 L 196.0,190.5 L 197.0,191.5 L 198.0,192.5 L 199.5,193.0 L 200.5,194.0 L 202.0,194.5 L 203.5,194.0 Z" fill="#333338" fill-rule="evenodd"/>
</svg>
