<?xml version="1.0" encoding="iso-8859-1"?>
<!-- Uploaded to: SVG Repo, www.svgrepo.com, Generator: SVG Repo Mixer Tools -->
<svg height="800px" width="800px" version="1.1" id="Layer_1" xmlns="http://www.w3.org/2000/svg" xmlns:xlink="http://www.w3.org/1999/xlink" 
	 viewBox="0 0 279.621 279.621" xml:space="preserve">
<g>
	<path style="fill:#1D1D1B;" d="M232.913,176.222c9.966,13.301,13.261,33.997,6.148,49.026c0.442,2.25-1.447,4.581-3.175,5.827
		c-2.17,1.487-4.943,2.049-7.434,1.165c-3.014-1.045-4.943-4.019-5.063-7.073c-0.482-0.281-0.764-0.804-0.603-1.487
		c5.465-23.91-6.269-39.221-24.634-52.121c-7.434-5.264-14.909-9.042-20.454-16.557c-9.403-12.739-10.89-28.692-5.023-42.958
		c-1.648-0.241-3.215-0.804-4.581-1.648c-14.346,22.986-23.308,45.932-5.827,70.325c7.233,10.127,14.427,19.611,18.325,31.586
		c7.033,21.58,3.416,44.566-12.658,60.921c-0.08,0.08-0.161,0.121-0.241,0.201c-1.608,6.51-10.689,7.997-15.431,3.938
		c-3.617-3.094-5.867-12.377-0.121-13.784c40.226-35.323-45.008-98.495-14.105-143.302c-5.385-1.447-10.167-4.742-13.06-9.564
		c-1.326,3.898-5.023,7.153-8.961,8.519c8.68,16.315,12.98,33.876,11.051,52.523c-2.773,27.165-25.598,51.357-0.844,75.308
		c0.161,0.121,0.241,0.322,0.241,0.482c3.858,3.376,2.612,9.685-1.728,12.337c-2.692,1.648-5.947,2.009-8.961,1.246
		c-1.407-0.362-3.376-0.965-4.742-1.969c-16.476-6.55-20.776-24.433-19.008-41.03c3.376-32.269,30.943-67.632,3.134-96.446
		c-4.862,2.331-11.533,2.17-17.119-0.322c0.201,0.482,0.121,1.085-0.402,1.567c-17.601,16.155-7.475,37.172-2.13,55.858
		c3.255,11.292,4.3,22.102,3.456,33.836c-1.326,19.691-6.349,39.422-24.594,49.308c0,0.121,0,0.281-0.121,0.442
		c-3.215,4.943-12.819,4.541-16.074-0.161c-3.014-4.38-0.924-9.645,3.255-11.654c0.121-0.321,0.322-0.643,0.683-0.844
		c45.41-27.125-3.094-84.711,10.649-124.375c-4.059-0.924-7.193-3.898-8.961-7.716c-0.12-0.121-0.201-0.321-0.281-0.522
		c-0.04-0.161-0.08-0.321-0.12-0.482c-0.442-1.125-0.764-2.291-1.005-3.456C29.211,62.778,61.119,7.804,114.285,0.852
		c65.663-8.6,93.512,49.428,94.075,106.171c0,0.281-0.04,0.482-0.121,0.683c1.125,2.733-0.723,5.425-3.215,6.671
		c-2.733,1.366-5.947,0.723-8.64-0.362c-1.768-0.683-3.496-1.648-5.103-2.733C174.402,151.588,215.673,153.236,232.913,176.222z
		 M235.846,223.962c8.841-21.258-1.808-45.611-20.414-57.023c-8.118-4.983-16.758-8.72-22.946-16.235
		c-9.966-12.176-10.046-27.487-3.014-40.829c-1.487-1.286-2.813-2.733-3.657-4.461c-2.13,3.576-6.51,6.39-10.127,6.751
		c-0.281,0.04-0.563,0.04-0.844,0.04c-5.586,21.499,1.125,39.422,19.771,52.322c8.118,5.626,16.436,9.886,22.745,17.682
		c9.645,11.855,12.819,26.563,8.439,41.11c0.04,2.492,1.206,5.104,3.777,5.947c1.648,0.522,3.416-0.08,4.742-1.125
		c0.924-0.764,1.326-1.688,1.849-2.652C235.806,225.088,235.605,224.565,235.846,223.962z M205.466,107.906
		c-0.201-0.241-0.321-0.522-0.362-0.884c-2.853-24.353-5.144-51.518-18.927-72.696c-13.864-21.338-40.749-31.345-65.382-30.018
		C63.811,7.362,35.038,63.26,45.848,114.899c2.451,4.501,5.988,8.238,11.895,6.631c6.912-1.929,7.555-8.037,8.76-13.864
		c0.241-1.125,1.808-1.206,2.331-0.322c0.08,0.121,0.08,0.201,0.161,0.281c0.201,0.121,0.442,0.281,0.522,0.603
		c2.331,6.872,8.278,11.131,15.471,11.573c7.394,0.442,13.221-3.134,12.9-11.212c-0.04-1.005,0.723-1.607,1.567-1.808
		c0.321-0.201,0.763-0.201,1.125,0.08c0.522,0.161,0.965,0.563,1.045,1.206c0.08,0.402,0.04,0.723,0.08,1.125
		c2.17,4.34,6.47,7.916,11.694,6.912c5.706-1.125,7.233-5.706,8.921-10.489c0.482-1.326,2.532-1.527,2.934,0
		c0.04,0.08,0,0.201,0.04,0.322c8.6,14.828,32.992,15.351,35.243-4.42c0.161-1.567,2.25-2.331,3.094-1.125
		c0.362,0.121,0.683,0.322,0.844,0.683c2.009,4.943,6.992,8.841,12.498,7.032c4.782-1.567,5.224-5.505,7.153-9.363
		c0.603-1.165,2.291-0.723,2.652,0.362c0.04,0.12,0,0.241,0.04,0.402c0.04,0.08,0.12,0.08,0.161,0.201
		C188.307,105.294,201.407,116.868,205.466,107.906z M166.446,271.743c13.985-18.083,17.883-39.904,9.846-61.404
		c-5.465-14.467-16.476-24.393-23.468-37.815c-11.694-22.464,0.12-44.486,12.216-63.935c0.121-0.161,0.241-0.281,0.362-0.362
		c-0.442-0.522-0.884-1.045-1.286-1.607c-1.326,7.756-9.243,13.462-17.159,14.386c-2.25,0.241-4.541,0.161-6.751-0.201
		c-17.682,35.042,9.403,63.333,20.454,95.521c5.465,15.873,8.761,39.462-7.394,50.192c-0.442,0.322-0.924,0.281-1.326,0.08
		c-0.723,1.648-0.402,4.059,0.201,5.425c0.763,1.929,2.25,3.456,4.179,4.22c4.059,1.487,7.394-1.005,9.886-3.898
		C166.245,272.145,166.285,271.944,166.446,271.743z M121.558,257.839c3.777-1.527,5.425-5.787,2.572-9.002
		c-0.402-0.482-0.362-1.085-0.121-1.527c-12.498-7.796-16.878-21.218-13.382-35.685c3.617-14.949,12.096-27.206,13.141-43.119
		c1.165-17.32-3.175-33.515-11.453-48.625c-4.3,0.08-8.399-2.13-10.85-5.506c-0.683,2.532-2.17,4.461-4.059,5.907
		c42.517,36.368-36.248,110.671,15.994,136.712c0.442,0.201,0.643,0.603,0.683,1.005c0.844,0.201,1.688,0.322,2.25,0.362
		C118.102,258.603,119.87,258.522,121.558,257.839z M75.264,120.565c0.201-0.161,0.402-0.281,0.603-0.362
		c-2.532-1.487-4.702-3.496-6.229-6.028c-1.407,5.505-7.113,10.488-12.176,11.292c-0.764,0.12-1.487,0.161-2.21,0.161
		c-7.957,31.345,11.252,57.345,10.73,88.047c-0.281,16.114-7.113,31.907-22.303,38.739c-0.402,0.161-0.764,0.161-1.125,0.08
		c-2.652,2.572-4.179,6.751-0.281,9.162c3.496,2.17,6.55-0.121,9.926-0.522c0.08-0.161,0.121-0.322,0.322-0.482
		c34.077-23.71,22.383-65.704,14.025-98.656C62.686,146.806,62.967,131.576,75.264,120.565z"/>
	<path style="fill:#EF67AC;" d="M215.432,166.939c18.606,11.413,29.255,35.765,20.414,57.023c-0.241,0.603-0.04,1.125,0.322,1.527
		c-0.523,0.965-0.924,1.889-1.849,2.652c-1.326,1.045-3.094,1.648-4.742,1.125c-2.572-0.844-3.737-3.456-3.777-5.947
		c4.38-14.547,1.206-29.255-8.439-41.11c-6.309-7.796-14.628-12.056-22.745-17.682c-18.646-12.9-25.357-30.822-19.771-52.322
		c0.281,0,0.563,0,0.844-0.04c3.617-0.362,7.997-3.175,10.127-6.751c0.844,1.728,2.17,3.175,3.657,4.461
		c-7.033,13.342-6.952,28.652,3.014,40.829C198.674,158.219,207.314,161.956,215.432,166.939z M232.792,213.836
		c1.326-3.135,1.527-6.269,0.442-9.524c-0.241-0.723-1.326-0.402-1.125,0.321c0.723,2.934,0.603,5.907-0.362,8.76
		C231.546,213.996,232.511,214.438,232.792,213.836z M231.546,209.576c0.08-0.482-0.603-0.723-0.804-0.201
		c-0.683,2.13-1.125,4.3-1.567,6.51c-0.121,0.522,0.643,0.723,0.763,0.201C230.582,213.956,231.185,211.786,231.546,209.576z
		 M206.712,167.421c0.804,0.402,1.487-0.723,0.723-1.165c-1.487-0.884-3.054-1.648-4.581-2.411
		c-0.723-0.362-1.326,0.643-0.643,1.045C203.698,165.774,205.185,166.658,206.712,167.421z M206.671,164.689
		c0.402,0.402,1.205-0.121,0.804-0.603c-1.607-2.21-4.179-3.416-6.872-3.496c-0.362,0-0.442,0.563-0.08,0.643
		C203.015,161.835,204.823,162.961,206.671,164.689z M179.586,123.096c0.08-0.603-0.884-0.804-1.165-0.322
		c-0.723,1.447-0.884,2.733-0.763,4.34c0.08,1.005,1.607,1.045,1.607,0C179.225,125.749,179.426,124.423,179.586,123.096z"/>
	<path style="fill:#1D1D1B;" d="M233.234,204.312c1.085,3.255,0.884,6.389-0.442,9.524c-0.281,0.603-1.246,0.161-1.045-0.442
		c0.965-2.853,1.085-5.827,0.362-8.76C231.908,203.91,232.993,203.588,233.234,204.312z"/>
	<path style="fill:#1D1D1B;" d="M230.743,209.375c0.201-0.522,0.884-0.281,0.804,0.201c-0.362,2.21-0.965,4.38-1.607,6.51
		c-0.121,0.522-0.884,0.321-0.763-0.201C229.617,213.675,230.059,211.505,230.743,209.375z"/>
	<path style="fill:#1D1D1B;" d="M207.435,166.256c0.764,0.442,0.08,1.567-0.723,1.165c-1.527-0.764-3.014-1.648-4.501-2.532
		c-0.683-0.402-0.08-1.407,0.643-1.045C204.381,164.608,205.948,165.372,207.435,166.256z"/>
	<path style="fill:#1D1D1B;" d="M207.475,164.086c0.402,0.482-0.402,1.005-0.804,0.603c-1.849-1.728-3.657-2.853-6.148-3.456
		c-0.362-0.08-0.281-0.643,0.08-0.643C203.296,160.67,205.868,161.876,207.475,164.086z"/>
	<path style="fill:#FACCE3;" d="M205.104,107.022c0.04,0.362,0.161,0.643,0.362,0.884c-4.059,8.961-17.159-2.612-18.485-8.198
		c-0.04-0.12-0.121-0.12-0.161-0.201c-0.04-0.161,0-0.281-0.04-0.402c-0.362-1.085-2.049-1.527-2.652-0.362
		c-1.929,3.858-2.371,7.796-7.153,9.363c-5.506,1.808-10.488-2.09-12.498-7.032c-0.161-0.362-0.482-0.563-0.844-0.683
		c-0.844-1.206-2.934-0.442-3.094,1.125c-2.25,19.771-26.643,19.249-35.243,4.42c-0.04-0.12,0-0.241-0.04-0.322
		c-0.402-1.527-2.451-1.326-2.934,0c-1.688,4.782-3.215,9.363-8.921,10.489c-5.224,1.005-9.524-2.572-11.694-6.912
		c-0.04-0.402,0-0.723-0.08-1.125c-0.08-0.643-0.522-1.045-1.045-1.206c-0.362-0.281-0.804-0.281-1.125-0.08
		c-0.844,0.201-1.607,0.804-1.567,1.808c0.321,8.077-5.505,11.654-12.9,11.212c-7.193-0.442-13.141-4.702-15.471-11.573
		c-0.08-0.322-0.322-0.482-0.522-0.603c-0.08-0.08-0.08-0.161-0.161-0.281c-0.522-0.884-2.09-0.804-2.331,0.322
		c-1.205,5.827-1.849,11.935-8.76,13.864c-5.907,1.607-9.444-2.13-11.895-6.631C35.038,63.26,63.811,7.362,120.795,4.308
		c24.634-1.326,51.518,8.68,65.382,30.019C199.96,55.504,202.251,82.67,205.104,107.022z M190.316,47.949
		c0.161,0.683,1.326,0.563,1.286-0.201c-0.201-2.934-1.567-5.425-3.496-7.595c-0.442-0.482-1.286,0.161-0.884,0.683
		C188.829,43.006,189.673,45.337,190.316,47.949z M187.664,53.013c0.201,0.924,1.688,0.723,1.688-0.241
		c-0.04-3.576-1.246-7.193-2.733-10.408c-0.322-0.723-1.527-0.241-1.286,0.563C186.418,46.261,186.94,49.597,187.664,53.013z
		 M171.429,74.03c0.964-3.536-1.447-6.992-4.661-8.318c-0.764-0.322-1.246,0.964-0.563,1.366c2.532,1.527,3.376,3.938,3.577,6.751
		C169.821,74.753,171.187,74.994,171.429,74.03z M146.996,111.764c0.804-0.161,0.643-1.447-0.161-1.407
		c-1.969,0.161-3.938,0-5.706-0.884c-0.723-0.362-1.326,0.643-0.643,1.085C142.535,111.844,144.665,112.327,146.996,111.764z
		 M143.5,114.778c0.764-0.201,0.683-1.527-0.201-1.447c-2.532,0.281-5.023-0.402-6.51-2.572c-0.402-0.603-1.326-0.08-0.965,0.563
		C137.311,114.095,140.405,115.742,143.5,114.778z M138.356,35.13c0.442,0.482,1.366-0.201,0.924-0.723
		c-1.165-1.567-2.532-2.572-4.38-3.295c-0.563-0.241-1.005,0.764-0.402,1.045C135.985,32.88,137.231,33.884,138.356,35.13z
		 M104.158,59.322c0.563-0.603-0.281-1.447-0.964-0.924c-1.487,1.206-2.451,2.813-2.773,4.742c-0.121,0.764,0.884,1.045,1.165,0.321
		C102.189,61.894,102.992,60.568,104.158,59.322z M99.737,61.693c0.522-0.804-0.683-1.447-1.246-0.723
		c-1.487,2.009-2.492,4.34-2.572,6.872c0,0.643,0.964,0.764,1.125,0.161C97.688,65.711,98.451,63.662,99.737,61.693z M90.254,22.873
		c0.804-0.281,0.683-1.447-0.201-1.487c-4.621-0.08-8.519,3.536-10.207,7.595c-0.281,0.723,0.884,1.165,1.246,0.522
		C83.141,25.807,86.396,24.119,90.254,22.873z M80.971,24.119c0.522-0.522-0.161-1.487-0.804-1.045
		c-2.492,1.688-4.461,4.34-6.028,6.912c-0.201,0.322,0.321,0.764,0.563,0.442C76.59,28.057,78.841,26.209,80.971,24.119z
		 M55.573,116.024c0.844-0.161,0.482-1.286-0.201-1.366c-2.17-0.321-3.898-1.688-4.501-3.777c-0.241-0.723-1.406-0.603-1.366,0.201
		C49.746,114.215,52.439,116.546,55.573,116.024z M50.872,117.832c0.683,0,1.165-0.924,0.603-1.407
		c-0.965-0.804-2.09-1.246-2.893-2.291c-0.964-1.206-1.406-2.572-1.366-4.099c0.04-0.884-1.487-1.125-1.607-0.201
		C45.125,112.929,47.054,117.993,50.872,117.832z"/>
	<path style="fill:#1D1D1B;" d="M191.602,47.748c0.04,0.764-1.125,0.884-1.286,0.201c-0.643-2.612-1.487-4.943-3.094-7.113
		c-0.402-0.522,0.442-1.165,0.884-0.683C190.035,42.323,191.401,44.815,191.602,47.748z"/>
	<path style="fill:#1D1D1B;" d="M189.351,52.772c0,0.964-1.487,1.165-1.688,0.241c-0.723-3.416-1.246-6.751-2.331-10.087
		c-0.241-0.804,0.964-1.286,1.286-0.563C188.106,45.578,189.311,49.195,189.351,52.772z"/>
	<path style="fill:#1D1D1B;" d="M178.421,122.775c0.281-0.482,1.246-0.281,1.165,0.322c-0.161,1.326-0.362,2.652-0.322,4.019
		c0,1.045-1.527,1.005-1.607,0C177.537,125.508,177.698,124.222,178.421,122.775z"/>
	<path style="fill:#EF67AC;" d="M176.291,210.34c8.037,21.499,4.139,43.32-9.846,61.404c-0.161,0.201-0.201,0.402-0.241,0.603
		c-2.492,2.893-5.827,5.385-9.886,3.898c-1.929-0.764-3.416-2.291-4.179-4.22c-0.603-1.366-0.924-3.777-0.201-5.425
		c0.402,0.201,0.884,0.241,1.326-0.08c16.155-10.73,12.859-34.319,7.394-50.192c-11.051-32.189-38.136-60.48-20.454-95.521
		c2.21,0.362,4.501,0.442,6.751,0.201c7.917-0.924,15.833-6.631,17.159-14.386c0.402,0.563,0.844,1.085,1.286,1.607
		c-0.121,0.08-0.241,0.201-0.362,0.362c-12.096,19.45-23.911,41.472-12.216,63.935C159.815,185.947,170.826,195.873,176.291,210.34z
		 M166.807,200.293c0.522,0.723,1.648,0.08,1.206-0.723c-1.085-2.049-2.291-4.018-3.657-5.907c-0.482-0.643-1.406-0.12-1.085,0.603
		C164.316,196.395,165.521,198.364,166.807,200.293z M166.847,207.647c0.241,0.643,1.165,0.362,1.045-0.281
		c-0.723-3.657-2.411-6.711-4.943-9.484c-0.482-0.522-1.246,0.241-0.804,0.804C164.316,201.298,165.843,204.432,166.847,207.647z
		 M167.048,264.108c0.563-0.844-0.764-1.527-1.326-0.764c-1.567,2.049-3.496,3.536-5.706,4.822
		c-0.683,0.402-0.241,1.648,0.563,1.326C163.311,268.488,165.481,266.559,167.048,264.108z M143.258,129.767
		c0.201-0.563-0.643-0.884-0.924-0.402c-1.366,2.21-2.009,4.702-2.13,7.314c-0.04,0.764,1.085,0.723,1.205,0
		C141.691,134.228,142.374,132.018,143.258,129.767z M141.772,126.874c0.402-0.643-0.563-1.165-1.005-0.563
		c-1.567,2.049-2.532,4.179-3.054,6.671c-0.201,0.764,0.924,1.085,1.165,0.322C139.602,131.093,140.606,128.923,141.772,126.874z"/>
	<path style="fill:#1D1D1B;" d="M166.767,65.711c3.215,1.326,5.626,4.782,4.661,8.318c-0.241,0.965-1.607,0.723-1.648-0.201
		c-0.201-2.813-1.045-5.224-3.577-6.751C165.521,66.676,166.004,65.39,166.767,65.711z"/>
	<path style="fill:#1D1D1B;" d="M168.013,199.57c0.442,0.804-0.683,1.447-1.206,0.723c-1.286-1.929-2.492-3.898-3.536-6.028
		c-0.321-0.723,0.603-1.246,1.085-0.603C165.722,195.551,166.928,197.52,168.013,199.57z"/>
	<path style="fill:#1D1D1B;" d="M167.892,207.366c0.121,0.643-0.804,0.924-1.045,0.281c-1.005-3.215-2.532-6.349-4.702-8.961
		c-0.442-0.563,0.322-1.326,0.804-0.804C165.481,200.655,167.169,203.709,167.892,207.366z"/>
	<path style="fill:#1D1D1B;" d="M165.722,263.344c0.563-0.763,1.889-0.08,1.326,0.764c-1.567,2.451-3.737,4.38-6.47,5.385
		c-0.804,0.322-1.246-0.924-0.563-1.326C162.226,266.881,164.155,265.394,165.722,263.344z"/>
	<path style="fill:#1D1D1B;" d="M146.835,110.358c0.804-0.04,0.964,1.246,0.161,1.407c-2.331,0.563-4.461,0.08-6.51-1.206
		c-0.683-0.442-0.08-1.447,0.643-1.085C142.897,110.358,144.866,110.518,146.835,110.358z"/>
	<path style="fill:#1D1D1B;" d="M143.299,113.331c0.884-0.08,0.964,1.246,0.201,1.447c-3.094,0.964-6.189-0.683-7.676-3.456
		c-0.362-0.643,0.563-1.165,0.965-0.563C138.275,112.929,140.767,113.613,143.299,113.331z"/>
	<path style="fill:#1D1D1B;" d="M142.334,129.365c0.281-0.482,1.125-0.161,0.924,0.402c-0.884,2.25-1.567,4.461-1.849,6.912
		c-0.12,0.723-1.246,0.764-1.205,0C140.325,134.067,140.968,131.576,142.334,129.365z"/>
	<path style="fill:#1D1D1B;" d="M140.767,126.311c0.442-0.603,1.407-0.08,1.005,0.563c-1.165,2.049-2.17,4.219-2.893,6.43
		c-0.241,0.764-1.366,0.442-1.165-0.322C138.235,130.491,139.2,128.361,140.767,126.311z"/>
	<path style="fill:#1D1D1B;" d="M139.28,34.407c0.442,0.522-0.482,1.206-0.924,0.723c-1.125-1.246-2.371-2.25-3.858-2.974
		c-0.603-0.281-0.161-1.286,0.402-1.045C136.748,31.835,138.115,32.839,139.28,34.407z"/>
	<path style="fill:#EF67AC;" d="M124.13,248.837c2.853,3.215,1.206,7.474-2.572,9.002c-1.688,0.683-3.456,0.764-5.224,0.522
		c-0.563-0.04-1.407-0.161-2.25-0.362c-0.04-0.402-0.241-0.804-0.683-1.005c-52.241-26.04,26.523-100.344-15.994-136.712
		c1.889-1.447,3.376-3.376,4.059-5.907c2.451,3.376,6.55,5.586,10.85,5.506c8.278,15.11,12.618,31.305,11.453,48.625
		c-1.045,15.913-9.524,28.17-13.141,43.119c-3.496,14.467,0.884,27.889,13.382,35.685
		C123.768,247.753,123.728,248.355,124.13,248.837z M120.795,169.471c1.085-2.893,1.326-5.787,0.884-8.841
		c-0.08-0.563-1.005-0.402-1.005,0.161c0.08,2.813-0.321,5.626-1.085,8.359C119.388,169.913,120.513,170.234,120.795,169.471z
		 M117.741,174.494c1.085-2.733,0.964-5.626,0-8.359c-0.161-0.482-0.924-0.281-0.804,0.201c0.683,2.692,0.482,5.224-0.281,7.836
		C116.414,174.896,117.499,175.177,117.741,174.494z M112.436,130.772c0.241,0.402,0.844,0.04,0.643-0.362
		c-0.321-0.683-0.683-1.366-1.005-2.049c-0.201-0.442-0.924-0.04-0.683,0.402C111.753,129.446,112.074,130.089,112.436,130.772z
		 M102.39,215.242c0.321-0.844-1.045-1.406-1.447-0.603c-1.889,3.335-2.451,7.153-2.09,10.93c0.08,0.924,1.487,0.964,1.447,0
		C100.26,221.913,101.104,218.618,102.39,215.242z M97.768,223.279c0.161-0.723-0.763-1.125-1.165-0.522
		c-1.447,2.371-1.326,5.586,0.402,7.756c0.241,0.281,0.643-0.04,0.563-0.362C97.206,227.7,97.206,225.69,97.768,223.279z"/>
	<path style="fill:#1D1D1B;" d="M121.679,160.63c0.442,3.054,0.201,5.947-0.884,8.841c-0.281,0.764-1.406,0.442-1.206-0.322
		c0.764-2.733,1.165-5.546,1.085-8.359C120.674,160.228,121.598,160.067,121.679,160.63z"/>
	<path style="fill:#1D1D1B;" d="M117.741,166.135c0.964,2.733,1.085,5.626,0,8.359c-0.241,0.683-1.326,0.402-1.085-0.322
		c0.764-2.612,0.964-5.144,0.281-7.836C116.816,165.854,117.58,165.653,117.741,166.135z"/>
	<path style="fill:#1D1D1B;" d="M113.079,130.41c0.201,0.402-0.402,0.764-0.643,0.362c-0.362-0.683-0.683-1.326-1.045-2.009
		c-0.241-0.442,0.482-0.844,0.683-0.402C112.396,129.044,112.758,129.727,113.079,130.41z"/>
	<path style="fill:#1D1D1B;" d="M103.193,58.398c0.683-0.522,1.527,0.322,0.964,0.924c-1.165,1.246-1.969,2.572-2.572,4.139
		c-0.281,0.723-1.286,0.442-1.165-0.321C100.742,61.211,101.706,59.603,103.193,58.398z"/>
	<path style="fill:#1D1D1B;" d="M100.943,214.639c0.402-0.804,1.768-0.241,1.447,0.603c-1.286,3.376-2.13,6.671-2.09,10.328
		c0.04,0.964-1.366,0.924-1.447,0C98.492,221.792,99.054,217.975,100.943,214.639z"/>
	<path style="fill:#1D1D1B;" d="M98.492,60.969c0.563-0.723,1.768-0.08,1.246,0.723c-1.286,1.969-2.05,4.019-2.692,6.309
		c-0.161,0.603-1.125,0.482-1.125-0.161C96,65.309,97.005,62.979,98.492,60.969z"/>
	<path style="fill:#1D1D1B;" d="M96.603,222.757c0.402-0.603,1.326-0.201,1.165,0.522c-0.563,2.411-0.563,4.42-0.201,6.872
		c0.08,0.322-0.322,0.643-0.563,0.362C95.277,228.343,95.156,225.128,96.603,222.757z"/>
	<path style="fill:#1D1D1B;" d="M90.053,21.387c0.884,0.04,1.005,1.205,0.201,1.487c-3.858,1.246-7.113,2.934-9.162,6.631
		c-0.362,0.643-1.527,0.201-1.246-0.522C81.533,24.923,85.431,21.306,90.053,21.387z"/>
	<path style="fill:#1D1D1B;" d="M80.167,23.074c0.643-0.442,1.326,0.522,0.804,1.045c-2.13,2.09-4.38,3.938-6.269,6.309
		c-0.241,0.322-0.764-0.12-0.563-0.442C75.706,27.414,77.675,24.762,80.167,23.074z"/>
	<path style="fill:#EF67AC;" d="M75.867,120.203c-0.201,0.08-0.402,0.201-0.603,0.362c-12.297,11.011-12.578,26.241-8.72,41.431
		c8.359,32.952,20.053,74.946-14.025,98.656c-0.201,0.161-0.241,0.322-0.322,0.482c-3.376,0.402-6.43,2.692-9.926,0.522
		c-3.898-2.411-2.371-6.59,0.281-9.162c0.362,0.08,0.723,0.08,1.125-0.08c15.19-6.832,22.022-22.625,22.303-38.739
		c0.522-30.702-18.686-56.702-10.73-88.047c0.723,0,1.447-0.04,2.21-0.161c5.063-0.804,10.77-5.787,12.176-11.292
		C71.165,116.707,73.335,118.716,75.867,120.203z M68.875,200.574c0.603-2.733,0.321-5.425-0.884-7.957
		c-0.322-0.603-1.246-0.201-1.085,0.442c0.723,2.451,1.085,4.822,1.045,7.394C67.91,200.976,68.754,201.097,68.875,200.574z
		 M66.423,131.616c0.522-0.522-0.161-1.406-0.804-1.005c-2.371,1.447-3.295,4.38-3.094,7.073c0.04,0.402,0.683,0.402,0.683,0
		C63.409,135.112,64.736,133.424,66.423,131.616z M65.017,127.236c0.683-0.603-0.161-1.607-0.924-1.205
		c-2.049,1.125-3.215,3.094-3.576,5.385c-0.161,0.964,1.246,1.406,1.527,0.402C62.566,129.928,63.61,128.522,65.017,127.236z
		 M57.341,255.669c0.563-0.643-0.281-1.447-0.884-0.924c-1.407,1.206-2.934,2.049-4.702,2.492c-0.603,0.161-0.482,1.125,0.121,1.085
		C54.086,258.161,55.895,257.357,57.341,255.669z M57.382,250.445c0.362-0.482-0.482-1.125-0.844-0.643
		c-1.447,1.728-3.054,3.255-4.863,4.541c-0.442,0.322-0.08,0.964,0.402,0.723C54.207,253.901,55.935,252.414,57.382,250.445z"/>
	<path style="fill:#1D1D1B;" d="M67.991,192.618c1.206,2.532,1.487,5.224,0.884,7.957c-0.121,0.522-0.965,0.402-0.924-0.121
		c0.04-2.572-0.322-4.943-1.045-7.394C66.745,192.417,67.669,192.015,67.991,192.618z"/>
	<path style="fill:#1D1D1B;" d="M65.62,130.611c0.643-0.402,1.326,0.482,0.804,1.005c-1.688,1.808-3.014,3.496-3.215,6.068
		c0,0.402-0.643,0.402-0.683,0C62.324,134.992,63.249,132.058,65.62,130.611z"/>
	<path style="fill:#1D1D1B;" d="M64.093,126.03c0.764-0.402,1.607,0.603,0.924,1.205c-1.407,1.286-2.451,2.693-2.974,4.581
		c-0.281,1.005-1.688,0.563-1.527-0.402C60.878,129.124,62.043,127.155,64.093,126.03z"/>
	<path style="fill:#1D1D1B;" d="M56.457,254.745c0.603-0.522,1.447,0.281,0.884,0.924c-1.447,1.688-3.255,2.492-5.465,2.652
		c-0.603,0.04-0.723-0.924-0.121-1.085C53.524,256.794,55.051,255.95,56.457,254.745z"/>
	<path style="fill:#1D1D1B;" d="M56.538,249.802c0.362-0.482,1.206,0.161,0.844,0.643c-1.447,1.969-3.175,3.456-5.305,4.621
		c-0.482,0.241-0.844-0.402-0.402-0.723C53.484,253.057,55.091,251.53,56.538,249.802z"/>
	<path style="fill:#1D1D1B;" d="M55.372,114.657c0.683,0.08,1.045,1.206,0.201,1.366c-3.134,0.522-5.827-1.808-6.068-4.943
		c-0.04-0.804,1.125-0.924,1.366-0.201C51.474,112.97,53.202,114.336,55.372,114.657z"/>
	<path style="fill:#1D1D1B;" d="M51.474,116.426c0.563,0.482,0.08,1.407-0.603,1.407c-3.818,0.161-5.746-4.903-5.264-7.997
		c0.121-0.924,1.648-0.683,1.607,0.201c-0.04,1.527,0.402,2.893,1.366,4.099C49.385,115.18,50.51,115.622,51.474,116.426z"/>
</g>
</svg>